<mxfile host="app.diagrams.net" agent="Mozilla/5.0 (X11; Linux x86_64) AppleWebKit/537.36 (KHTML, like Gecko) Chrome/128.0.0.0 Safari/537.36 OPR/114.0.0.0" version="25.0.3" pages="2">
  <diagram name="Õpiväljundid" id="HOLbYARwxGNt5G9FzNMO">
    <mxGraphModel dx="1380" dy="907" grid="1" gridSize="10" guides="1" tooltips="1" connect="1" arrows="1" fold="1" page="1" pageScale="1" pageWidth="827" pageHeight="1169" math="1" shadow="0">
      <root>
        <mxCell id="0" />
        <mxCell id="1" parent="0" />
        <mxCell id="H3njUC9bQLBFBT5jkG47-1" value="" style="ellipse;html=1;shape=endState;fillColor=#000000;strokeColor=#ff0000;" parent="1" vertex="1">
          <mxGeometry x="370" y="1110" width="30" height="30" as="geometry" />
        </mxCell>
        <mxCell id="H3njUC9bQLBFBT5jkG47-2" value="5" style="swimlane;fontStyle=1;align=center;verticalAlign=middle;childLayout=stackLayout;horizontal=1;startSize=30;horizontalStack=0;resizeParent=0;resizeLast=1;container=0;collapsible=0;rounded=1;arcSize=30;strokeColor=#82b366;fillColor=#d5e8d4;swimlaneFillColor=#ffffc0;dropTarget=0;" parent="1" vertex="1">
          <mxGeometry x="237.5" y="1000" width="295" height="90" as="geometry" />
        </mxCell>
        <mxCell id="H3njUC9bQLBFBT5jkG47-3" value=" lahendab lihtsamaid reaalelulise kontekstiga probleeme võrrandite ja võrrandisüsteemide&lt;br/&gt;abil" style="text;html=1;strokeColor=none;fillColor=none;align=center;verticalAlign=middle;spacingLeft=4;spacingRight=4;whiteSpace=wrap;overflow=hidden;rotatable=0;fontColor=#000000;" parent="H3njUC9bQLBFBT5jkG47-2" vertex="1">
          <mxGeometry y="30" width="295" height="60" as="geometry" />
        </mxCell>
        <mxCell id="H3njUC9bQLBFBT5jkG47-4" value="" style="edgeStyle=orthogonalEdgeStyle;html=1;verticalAlign=bottom;endArrow=open;endSize=8;strokeColor=#ff0000;rounded=0;" parent="1" source="H3njUC9bQLBFBT5jkG47-2" target="H3njUC9bQLBFBT5jkG47-1" edge="1">
          <mxGeometry relative="1" as="geometry">
            <mxPoint x="380" y="980" as="targetPoint" />
          </mxGeometry>
        </mxCell>
        <mxCell id="Rrk2SFUDBp2oYCEs8pPQ-13" style="edgeStyle=orthogonalEdgeStyle;rounded=0;orthogonalLoop=1;jettySize=auto;html=1;" parent="1" source="H3njUC9bQLBFBT5jkG47-5" target="H3njUC9bQLBFBT5jkG47-14" edge="1">
          <mxGeometry relative="1" as="geometry" />
        </mxCell>
        <mxCell id="H3njUC9bQLBFBT5jkG47-5" value="4" style="swimlane;fontStyle=1;align=center;verticalAlign=middle;childLayout=stackLayout;horizontal=1;startSize=30;horizontalStack=0;resizeParent=0;resizeLast=1;container=0;collapsible=0;rounded=1;arcSize=30;strokeColor=#d79b00;fillColor=#ffe6cc;swimlaneFillColor=#ffffc0;dropTarget=0;" parent="1" vertex="1">
          <mxGeometry x="420" y="530" width="250" height="90" as="geometry" />
        </mxCell>
        <mxCell id="H3njUC9bQLBFBT5jkG47-6" value=" teisendab lihtsamaid (kaks tehet ja sulud) ratsionaal- ja irratsionaalavaldisi" style="text;html=1;strokeColor=none;fillColor=none;align=center;verticalAlign=middle;spacingLeft=4;spacingRight=4;whiteSpace=wrap;overflow=hidden;rotatable=0;fontColor=#000000;" parent="H3njUC9bQLBFBT5jkG47-5" vertex="1">
          <mxGeometry y="30" width="250" height="60" as="geometry" />
        </mxCell>
        <mxCell id="H3njUC9bQLBFBT5jkG47-8" value="3" style="swimlane;fontStyle=1;align=center;verticalAlign=middle;childLayout=stackLayout;horizontal=1;startSize=30;horizontalStack=0;resizeParent=0;resizeLast=1;container=0;collapsible=0;rounded=1;arcSize=30;strokeColor=#d6b656;fillColor=#fff2cc;swimlaneFillColor=#ffffc0;dropTarget=0;" parent="1" vertex="1">
          <mxGeometry x="440" y="248" width="360" height="110" as="geometry" />
        </mxCell>
        <mxCell id="H3njUC9bQLBFBT5jkG47-9" value="sooritab tehteid astmete ja juurtega (teine kuni neljas juur), teisendades viimased&lt;br/&gt;ratsionaalarvulise astendajaga astmeteks" style="text;html=1;strokeColor=none;fillColor=none;align=center;verticalAlign=middle;spacingLeft=4;spacingRight=4;whiteSpace=wrap;overflow=hidden;rotatable=0;fontColor=#000000;" parent="H3njUC9bQLBFBT5jkG47-8" vertex="1">
          <mxGeometry y="30" width="360" height="80" as="geometry" />
        </mxCell>
        <mxCell id="H3njUC9bQLBFBT5jkG47-11" value="4" style="swimlane;fontStyle=1;align=center;verticalAlign=middle;childLayout=stackLayout;horizontal=1;startSize=30;horizontalStack=0;resizeParent=0;resizeLast=1;container=0;collapsible=0;rounded=1;arcSize=30;strokeColor=#d79b00;fillColor=#ffe6cc;swimlaneFillColor=#ffffc0;dropTarget=0;" parent="1" vertex="1">
          <mxGeometry x="195" y="860" width="380" height="100" as="geometry" />
        </mxCell>
        <mxCell id="H3njUC9bQLBFBT5jkG47-12" value=" lahendab ühe tundmatuga lineaar- ja ruutvõrrandeid ning -võrratusi, samuti lihtsamaid&lt;br/&gt;murdvõrrandeid (maksimaalselt 2 murdu) ning ühe tundmatuga lineaarvõrratuste süsteeme" style="text;html=1;strokeColor=none;fillColor=none;align=center;verticalAlign=middle;spacingLeft=4;spacingRight=4;whiteSpace=wrap;overflow=hidden;rotatable=0;fontColor=#000000;" parent="H3njUC9bQLBFBT5jkG47-11" vertex="1">
          <mxGeometry y="30" width="380" height="70" as="geometry" />
        </mxCell>
        <mxCell id="H3njUC9bQLBFBT5jkG47-13" value="" style="edgeStyle=orthogonalEdgeStyle;html=1;verticalAlign=bottom;endArrow=open;endSize=8;strokeColor=#ff0000;rounded=0;" parent="1" source="H3njUC9bQLBFBT5jkG47-11" target="H3njUC9bQLBFBT5jkG47-2" edge="1">
          <mxGeometry relative="1" as="geometry">
            <mxPoint x="380" y="560" as="targetPoint" />
            <Array as="points">
              <mxPoint x="385" y="980" />
              <mxPoint x="385" y="980" />
            </Array>
          </mxGeometry>
        </mxCell>
        <mxCell id="H3njUC9bQLBFBT5jkG47-14" value="4" style="swimlane;fontStyle=1;align=center;verticalAlign=middle;childLayout=stackLayout;horizontal=1;startSize=30;horizontalStack=0;resizeParent=0;resizeLast=1;container=0;collapsible=0;rounded=1;arcSize=30;strokeColor=#d79b00;fillColor=#ffe6cc;swimlaneFillColor=#ffffc0;dropTarget=0;" parent="1" vertex="1">
          <mxGeometry x="460" y="650" width="170" height="70" as="geometry" />
        </mxCell>
        <mxCell id="H3njUC9bQLBFBT5jkG47-15" value="eristab võrdust, samasust, võrrandit ja võrratust" style="text;html=1;strokeColor=none;fillColor=none;align=center;verticalAlign=middle;spacingLeft=4;spacingRight=4;whiteSpace=wrap;overflow=hidden;rotatable=0;fontColor=#000000;" parent="H3njUC9bQLBFBT5jkG47-14" vertex="1">
          <mxGeometry y="30" width="170" height="40" as="geometry" />
        </mxCell>
        <mxCell id="H3njUC9bQLBFBT5jkG47-17" value="4" style="swimlane;fontStyle=1;align=center;verticalAlign=middle;childLayout=stackLayout;horizontal=1;startSize=30;horizontalStack=0;resizeParent=0;resizeLast=1;container=0;collapsible=0;rounded=1;arcSize=30;strokeColor=#d79b00;fillColor=#ffe6cc;swimlaneFillColor=#ffffc0;dropTarget=0;" parent="1" vertex="1">
          <mxGeometry x="220" y="640" width="170" height="70" as="geometry" />
        </mxCell>
        <mxCell id="H3njUC9bQLBFBT5jkG47-18" value="märgib arvteljel reaalarvude piirkondi" style="text;html=1;strokeColor=none;fillColor=none;align=center;verticalAlign=middle;spacingLeft=4;spacingRight=4;whiteSpace=wrap;overflow=hidden;rotatable=0;fontColor=#000000;" parent="H3njUC9bQLBFBT5jkG47-17" vertex="1">
          <mxGeometry y="30" width="170" height="40" as="geometry" />
        </mxCell>
        <mxCell id="H3njUC9bQLBFBT5jkG47-20" value="4" style="swimlane;fontStyle=1;align=center;verticalAlign=middle;childLayout=stackLayout;horizontal=1;startSize=30;horizontalStack=0;resizeParent=0;resizeLast=1;container=0;collapsible=0;rounded=1;arcSize=30;strokeColor=#d79b00;fillColor=#ffe6cc;swimlaneFillColor=#ffffc0;dropTarget=0;" parent="1" vertex="1">
          <mxGeometry x="40" y="370" width="420" height="70" as="geometry" />
        </mxCell>
        <mxCell id="H3njUC9bQLBFBT5jkG47-21" value="$$\text{eristab arvuhulki } \mathbb{N}; \mathbb{Z}; \mathbb{Q}; \mathbb{I}\text{ ja }\mathbb{R}\text{, selgitab nende kuuluvusseoseid}$$" style="text;html=1;strokeColor=none;fillColor=none;align=center;verticalAlign=middle;spacingLeft=4;spacingRight=4;whiteSpace=wrap;overflow=hidden;rotatable=0;fontColor=#000000;fontFamily=Helvetica;" parent="H3njUC9bQLBFBT5jkG47-20" vertex="1">
          <mxGeometry y="30" width="420" height="40" as="geometry" />
        </mxCell>
        <mxCell id="H3njUC9bQLBFBT5jkG47-23" value="3" style="swimlane;fontStyle=1;align=center;verticalAlign=middle;childLayout=stackLayout;horizontal=1;startSize=30;horizontalStack=0;resizeParent=0;resizeLast=1;container=0;collapsible=0;rounded=1;arcSize=30;strokeColor=#d6b656;fillColor=#fff2cc;swimlaneFillColor=#ffffc0;dropTarget=0;" parent="1" vertex="1">
          <mxGeometry x="165" y="210" width="170" height="80" as="geometry" />
        </mxCell>
        <mxCell id="H3njUC9bQLBFBT5jkG47-24" value=" leiab hulkade ühendi, ühisosa ja antud hulga osahulga" style="text;html=1;strokeColor=none;fillColor=none;align=center;verticalAlign=middle;spacingLeft=4;spacingRight=4;whiteSpace=wrap;overflow=hidden;rotatable=0;fontColor=#000000;" parent="H3njUC9bQLBFBT5jkG47-23" vertex="1">
          <mxGeometry y="30" width="170" height="50" as="geometry" />
        </mxCell>
        <mxCell id="H3njUC9bQLBFBT5jkG47-29" value=" leiab hulkade ühendi, ühisosa ja antud hulga osahulga" style="text;html=1;strokeColor=none;fillColor=none;align=center;verticalAlign=middle;spacingLeft=4;spacingRight=4;whiteSpace=wrap;overflow=hidden;rotatable=0;fontColor=#000000;" parent="H3njUC9bQLBFBT5jkG47-23" vertex="1">
          <mxGeometry y="80" width="170" as="geometry" />
        </mxCell>
        <mxCell id="H3njUC9bQLBFBT5jkG47-25" value="" style="edgeStyle=orthogonalEdgeStyle;html=1;verticalAlign=bottom;endArrow=open;endSize=8;strokeColor=#ff0000;rounded=0;" parent="1" source="H3njUC9bQLBFBT5jkG47-23" target="H3njUC9bQLBFBT5jkG47-20" edge="1">
          <mxGeometry relative="1" as="geometry">
            <mxPoint x="250" y="180" as="targetPoint" />
          </mxGeometry>
        </mxCell>
        <mxCell id="H3njUC9bQLBFBT5jkG47-26" value="" style="ellipse;html=1;shape=startState;fillColor=#000000;strokeColor=#ff0000;" parent="1" vertex="1">
          <mxGeometry x="320" y="20" width="30" height="30" as="geometry" />
        </mxCell>
        <mxCell id="H3njUC9bQLBFBT5jkG47-33" value="võrrandite tüüpide tundmaõppimine" style="rounded=1;whiteSpace=wrap;html=1;arcSize=40;fontColor=#000000;fillColor=#ffffc0;strokeColor=#ff0000;" parent="1" vertex="1">
          <mxGeometry x="485" y="740" width="120" height="40" as="geometry" />
        </mxCell>
        <mxCell id="H3njUC9bQLBFBT5jkG47-35" style="edgeStyle=orthogonalEdgeStyle;rounded=0;orthogonalLoop=1;jettySize=auto;html=1;" parent="1" source="H3njUC9bQLBFBT5jkG47-15" target="H3njUC9bQLBFBT5jkG47-33" edge="1">
          <mxGeometry relative="1" as="geometry" />
        </mxCell>
        <mxCell id="Rrk2SFUDBp2oYCEs8pPQ-14" style="edgeStyle=orthogonalEdgeStyle;rounded=0;orthogonalLoop=1;jettySize=auto;html=1;" parent="1" source="H3njUC9bQLBFBT5jkG47-36" target="H3njUC9bQLBFBT5jkG47-17" edge="1">
          <mxGeometry relative="1" as="geometry" />
        </mxCell>
        <mxCell id="H3njUC9bQLBFBT5jkG47-36" value="" style="shape=line;html=1;strokeWidth=6;strokeColor=#ff0000;" parent="1" vertex="1">
          <mxGeometry x="205" y="520" width="200" height="10" as="geometry" />
        </mxCell>
        <mxCell id="H3njUC9bQLBFBT5jkG47-41" style="edgeStyle=orthogonalEdgeStyle;rounded=0;orthogonalLoop=1;jettySize=auto;html=1;" parent="1" source="H3njUC9bQLBFBT5jkG47-38" target="H3njUC9bQLBFBT5jkG47-23" edge="1">
          <mxGeometry relative="1" as="geometry" />
        </mxCell>
        <mxCell id="Rrk2SFUDBp2oYCEs8pPQ-19" style="edgeStyle=orthogonalEdgeStyle;rounded=0;orthogonalLoop=1;jettySize=auto;html=1;" parent="1" source="H3njUC9bQLBFBT5jkG47-38" target="4UdZrBosyjMKKWAFA344-3" edge="1">
          <mxGeometry relative="1" as="geometry">
            <Array as="points">
              <mxPoint x="390" y="100" />
              <mxPoint x="450" y="100" />
            </Array>
          </mxGeometry>
        </mxCell>
        <mxCell id="H3njUC9bQLBFBT5jkG47-38" value="" style="shape=line;html=1;strokeWidth=6;strokeColor=#ff0000;" parent="1" vertex="1">
          <mxGeometry x="235" y="80" width="200" height="10" as="geometry" />
        </mxCell>
        <mxCell id="H3njUC9bQLBFBT5jkG47-40" style="edgeStyle=orthogonalEdgeStyle;rounded=0;orthogonalLoop=1;jettySize=auto;html=1;entryX=0.5;entryY=0;entryDx=0;entryDy=0;entryPerimeter=0;" parent="1" source="H3njUC9bQLBFBT5jkG47-26" target="H3njUC9bQLBFBT5jkG47-38" edge="1">
          <mxGeometry relative="1" as="geometry" />
        </mxCell>
        <mxCell id="Rrk2SFUDBp2oYCEs8pPQ-15" style="edgeStyle=orthogonalEdgeStyle;rounded=0;orthogonalLoop=1;jettySize=auto;html=1;" parent="1" source="H3njUC9bQLBFBT5jkG47-42" target="H3njUC9bQLBFBT5jkG47-5" edge="1">
          <mxGeometry relative="1" as="geometry" />
        </mxCell>
        <mxCell id="H3njUC9bQLBFBT5jkG47-42" value="" style="shape=line;html=1;strokeWidth=6;strokeColor=#ff0000;" parent="1" vertex="1">
          <mxGeometry x="445" y="470" width="200" height="10" as="geometry" />
        </mxCell>
        <mxCell id="Rrk2SFUDBp2oYCEs8pPQ-9" style="edgeStyle=orthogonalEdgeStyle;rounded=0;orthogonalLoop=1;jettySize=auto;html=1;" parent="1" source="H3njUC9bQLBFBT5jkG47-44" target="H3njUC9bQLBFBT5jkG47-11" edge="1">
          <mxGeometry relative="1" as="geometry" />
        </mxCell>
        <mxCell id="H3njUC9bQLBFBT5jkG47-44" value="" style="shape=line;html=1;strokeWidth=6;strokeColor=#ff0000;" parent="1" vertex="1">
          <mxGeometry x="285" y="810" width="200" height="10" as="geometry" />
        </mxCell>
        <mxCell id="Rrk2SFUDBp2oYCEs8pPQ-1" value="Kitsa matemaatika I kursus" style="text;align=center;fontStyle=1;verticalAlign=middle;spacingLeft=3;spacingRight=3;strokeColor=none;rotatable=0;points=[[0,0.5],[1,0.5]];portConstraint=eastwest;html=1;" parent="1" vertex="1">
          <mxGeometry x="90" y="40" width="80" height="26" as="geometry" />
        </mxCell>
        <mxCell id="Rrk2SFUDBp2oYCEs8pPQ-2" value="tase (punkte)" style="swimlane;fontStyle=1;align=center;verticalAlign=middle;childLayout=stackLayout;horizontal=1;startSize=30;horizontalStack=0;resizeParent=0;resizeLast=1;container=0;fontColor=#000000;collapsible=0;rounded=1;arcSize=30;strokeColor=#ff0000;fillColor=#ffffc0;swimlaneFillColor=#ffffc0;dropTarget=0;" parent="1" vertex="1">
          <mxGeometry x="50" y="90" width="160" height="60" as="geometry" />
        </mxCell>
        <mxCell id="Rrk2SFUDBp2oYCEs8pPQ-3" value="õpiväljund: Õpilane..." style="text;html=1;strokeColor=none;fillColor=none;align=center;verticalAlign=middle;spacingLeft=4;spacingRight=4;whiteSpace=wrap;overflow=hidden;rotatable=0;fontColor=#000000;" parent="Rrk2SFUDBp2oYCEs8pPQ-2" vertex="1">
          <mxGeometry y="30" width="160" height="30" as="geometry" />
        </mxCell>
        <mxCell id="Rrk2SFUDBp2oYCEs8pPQ-10" style="edgeStyle=orthogonalEdgeStyle;rounded=0;orthogonalLoop=1;jettySize=auto;html=1;entryX=0.935;entryY=0.7;entryDx=0;entryDy=0;entryPerimeter=0;" parent="1" source="H3njUC9bQLBFBT5jkG47-33" target="H3njUC9bQLBFBT5jkG47-44" edge="1">
          <mxGeometry relative="1" as="geometry" />
        </mxCell>
        <mxCell id="Rrk2SFUDBp2oYCEs8pPQ-11" style="edgeStyle=orthogonalEdgeStyle;rounded=0;orthogonalLoop=1;jettySize=auto;html=1;entryX=0.125;entryY=0.4;entryDx=0;entryDy=0;entryPerimeter=0;" parent="1" source="H3njUC9bQLBFBT5jkG47-18" target="H3njUC9bQLBFBT5jkG47-44" edge="1">
          <mxGeometry relative="1" as="geometry" />
        </mxCell>
        <mxCell id="Rrk2SFUDBp2oYCEs8pPQ-16" style="edgeStyle=orthogonalEdgeStyle;rounded=0;orthogonalLoop=1;jettySize=auto;html=1;entryX=0.895;entryY=0.3;entryDx=0;entryDy=0;entryPerimeter=0;" parent="1" source="H3njUC9bQLBFBT5jkG47-42" target="H3njUC9bQLBFBT5jkG47-36" edge="1">
          <mxGeometry relative="1" as="geometry" />
        </mxCell>
        <mxCell id="Rrk2SFUDBp2oYCEs8pPQ-17" style="edgeStyle=orthogonalEdgeStyle;rounded=0;orthogonalLoop=1;jettySize=auto;html=1;entryX=0.33;entryY=0.3;entryDx=0;entryDy=0;entryPerimeter=0;" parent="1" source="H3njUC9bQLBFBT5jkG47-21" target="H3njUC9bQLBFBT5jkG47-36" edge="1">
          <mxGeometry relative="1" as="geometry" />
        </mxCell>
        <mxCell id="Rrk2SFUDBp2oYCEs8pPQ-18" style="edgeStyle=orthogonalEdgeStyle;rounded=0;orthogonalLoop=1;jettySize=auto;html=1;entryX=0.515;entryY=0.4;entryDx=0;entryDy=0;entryPerimeter=0;" parent="1" source="H3njUC9bQLBFBT5jkG47-9" target="H3njUC9bQLBFBT5jkG47-42" edge="1">
          <mxGeometry relative="1" as="geometry" />
        </mxCell>
        <mxCell id="4UdZrBosyjMKKWAFA344-1" value="juurimise tundmaõppimine" style="rounded=1;whiteSpace=wrap;html=1;arcSize=40;fontColor=#000000;fillColor=#ffffc0;strokeColor=#ff0000;" parent="1" vertex="1">
          <mxGeometry x="680" y="120" width="120" height="40" as="geometry" />
        </mxCell>
        <mxCell id="4UdZrBosyjMKKWAFA344-2" value="" style="edgeStyle=orthogonalEdgeStyle;html=1;verticalAlign=bottom;endArrow=open;endSize=8;strokeColor=#ff0000;rounded=0;" parent="1" source="4UdZrBosyjMKKWAFA344-1" target="4UdZrBosyjMKKWAFA344-7" edge="1">
          <mxGeometry relative="1" as="geometry">
            <mxPoint x="705" y="150" as="targetPoint" />
          </mxGeometry>
        </mxCell>
        <mxCell id="4UdZrBosyjMKKWAFA344-3" value="funktsiooni tundmaõppimine" style="rounded=1;whiteSpace=wrap;html=1;arcSize=40;fontColor=#000000;fillColor=#ffffc0;strokeColor=#ff0000;" parent="1" vertex="1">
          <mxGeometry x="390" y="120" width="120" height="40" as="geometry" />
        </mxCell>
        <mxCell id="4UdZrBosyjMKKWAFA344-4" value="" style="edgeStyle=orthogonalEdgeStyle;html=1;verticalAlign=bottom;endArrow=open;endSize=8;strokeColor=#ff0000;rounded=0;" parent="1" source="4UdZrBosyjMKKWAFA344-3" target="4UdZrBosyjMKKWAFA344-5" edge="1">
          <mxGeometry relative="1" as="geometry">
            <mxPoint x="410" y="270" as="targetPoint" />
          </mxGeometry>
        </mxCell>
        <mxCell id="4UdZrBosyjMKKWAFA344-5" value="absoluutväärtuse tundmaõppimine" style="rounded=1;whiteSpace=wrap;html=1;arcSize=40;fontColor=#000000;fillColor=#ffffc0;strokeColor=#ff0000;" parent="1" vertex="1">
          <mxGeometry x="540" y="120" width="120" height="40" as="geometry" />
        </mxCell>
        <mxCell id="4UdZrBosyjMKKWAFA344-6" value="" style="edgeStyle=orthogonalEdgeStyle;html=1;verticalAlign=bottom;endArrow=open;endSize=8;strokeColor=#ff0000;rounded=0;" parent="1" source="4UdZrBosyjMKKWAFA344-5" target="4UdZrBosyjMKKWAFA344-1" edge="1">
          <mxGeometry relative="1" as="geometry">
            <mxPoint x="545" y="220" as="targetPoint" />
          </mxGeometry>
        </mxCell>
        <mxCell id="4UdZrBosyjMKKWAFA344-7" value="tegurdamise õppimine" style="rounded=1;whiteSpace=wrap;html=1;arcSize=40;fontColor=#000000;fillColor=#ffffc0;strokeColor=#ff0000;" parent="1" vertex="1">
          <mxGeometry x="680" y="180" width="120" height="40" as="geometry" />
        </mxCell>
        <mxCell id="4UdZrBosyjMKKWAFA344-8" value="" style="edgeStyle=orthogonalEdgeStyle;html=1;verticalAlign=bottom;endArrow=open;endSize=8;strokeColor=#ff0000;rounded=0;" parent="1" source="4UdZrBosyjMKKWAFA344-7" target="H3njUC9bQLBFBT5jkG47-8" edge="1">
          <mxGeometry relative="1" as="geometry">
            <mxPoint x="410" y="270" as="targetPoint" />
          </mxGeometry>
        </mxCell>
      </root>
    </mxGraphModel>
  </diagram>
  <diagram id="G3zDwb-mi2738iLz7LDv" name="Hindamine">
    <mxGraphModel dx="1380" dy="907" grid="1" gridSize="10" guides="1" tooltips="1" connect="1" arrows="1" fold="1" page="1" pageScale="1" pageWidth="850" pageHeight="1100" math="0" shadow="0">
      <root>
        <mxCell id="0" />
        <mxCell id="1" parent="0" />
        <mxCell id="I_-PW9f_ODD57kMSkVxC-2" value="&lt;p data-pm-slice=&quot;1 1 []&quot;&gt;Hindan iga õpiväljundi saavutamist, mida kontrollin lühitestiga, mis võib sisaldada ülesandeid eri õpiväljundite kohta. Mitmes testis võib olla ülesandeid sama õpiväljundi kohta. See tähendab, et õpilane võib saada sama õpiväljundi kohta mitu hinnet. Kõrgem hinne näitab kõrgemat oskustaset. Arvesse läheb suurim hinne, mis näitab, kuhu õpilane on jõudnud. Kui see hinne on suurem kui eelmine hinne, siis on õpilane tõenäoliselt õppinud. Kui õpilane on ühe ja sama õpiväljundi saavutatuse kohta saanud mitu hinnet, nt 4, 2, 3, 1, siis kehtima jääb hinne 4, kuna see on suurim&amp;nbsp;hinne. Lühitesti sooritades on keelatud kasutada mis tahes info hankimise abivahendeid, välja arvatud enda või kaasõpilase aju. Matemaatikas tuleb lõpuks sooritada eksam ja valmistume selleks niimoodi. Kui õpilane siiski vähemalt puudutab keelatud abivahendit, siis ma õpilase sooritust ei hinda.&lt;/p&gt;&lt;p&gt;&lt;/p&gt;&lt;p&gt;Kui mingi õpiväljundi hinne on 1 või 2, siis saab õpilane minult kaheosalise kooliväliseks lahendamiseks mõeldud ülesannete kogumi, milles tuleb täielikult lahendada õpiväljundiga seotud eestikeelsete sõnade ristsõna ja vähemalt 50 % ulatuses teemakohased matemaatika tervikülesanded korrektselt. Ristsõna lahendamise eesmärk on oskus osata seotud sõnavara eesti keeles, et mõistaksime üksteist paremini. Kui korrektselt lahendatud matemaatikaülesandeid on vähem kui 50 % õpilasele määratud tervikülesannete arvust, siis saab õpilane uued matemaatikaülesanded, mida on sedapuhku kahekordne arv võrreldes eelmise ülesannete arvuga, mis tuleb lahendada samal tingimusel. Kui ka seekord normi ei saavutata, saab õpilane omakorda kahekordse arvu uusi ülesandeid samal tingimusel lahendamiseks ning see protsess võib kesta seni, kuni kestab kursus, mille lõppedes fikseerime kõik hinded lõplikuks kursusehindeks. Mida rohkem õpilane harjutab, seda paremini selgeks teema saab.&lt;/p&gt;&lt;p&gt;&lt;/p&gt;&lt;p&gt;Kui õpilane saaks testisoorituse hindeks 5 või kaks viit, siis on võimalus, et ta kutsutakse järgmises õppesessioonis, kui ta on kohal, vastavalt esimese kümne või viie minuti kestel tahvlile lahendama sarnast ülesannet ja kaasõpilastele valjuhäälselt selgitama ilma nimetatud keelatud abivahenditeta. Seeläbi kontrollime õpilase tegelikke oskusi ja see on võimalus õpilasel oma mõtteid selgitada. Kui õpilane seeläbi näitab, et ta päriselt oskab, siis saab boonuspunkti. Muul juhul peab õpilane edaspidi samasuguse ajapiiranguga õppesessioonidevahelise kuni 20-min pausi kestel minu antud paberilehele lahendama sarnase ülesande. Iga sellise pausi kestel toimub lahendamine, kuni on tõendatud oskus. Kui õpilane keeldub tahvlile lahendamast, siis ta lahendab samamoodi minu antud paberilehele nimetatud pausi kestel. See reegliosa on sisse seatud seetõttu, et vahel ma näen, et keegi justkui kirjutaks kuskilt maha, aga ma ei näe, kust, ning et vältida olukorda, milles õpilane saab lihtsalt mahakirjutamise eest maksimaalse hinde.&lt;/p&gt;&lt;p&gt;&lt;/p&gt;&lt;p&gt;Kursusel on kaheksa õpiväljundit, mille maksimaalne punktide arv on skaalal 1-5 vastavalt 3, 4, 4, 4, 4, 3, 4 ja 5. Kokku on seega võimalik saada 31 punkti terve kursuse peale kokku. Et minimaalne võimalik hinne on 1 ja maksimaalne võimalik hinne on 5, siis hinnete kaalud on vastavalt 0, 0,25, 0,5, 0,75 ja 1. Näiteks, kui sa saavutad esimese õpiväljundi hindele 4, saad (3 punkti) * 0,75 = 2,25 punkti. Kui testis on boonusülesanne, siis selle lahendamise eest on võimalik saada vastavalt märgitud tasemele rohkem punkte - eKoolis kaks viit. Kursusehinne arvutatakse vastavalt õppekavas sätestatud osamääradele. Nt kui sa saad kokku kogu kursuse peale 26,25 punkti, mis moodustab 31&#39;st osa, mis on vahemikus (75 %)-(89 %) lõpphindest, saad kursusehindeks 4.&lt;/p&gt;&lt;p&gt;&lt;/p&gt;&lt;p&gt;Eraldi hinnete parandamist me ei tee. Iga lühitest võib olla osaline või täielik eelneva testi järelvastamine. Kuni kursuse lõpuni on võimalik tõendada õpiväljundi saavutamist, kui vastav temaatika on testis. Muul juhul saab õpilane endale vähemalt 3 kujundada vastava õpiväljundi kohta nimetatud koolivälise ülesande sooritamise kaudu.&lt;/p&gt;" style="text;whiteSpace=wrap;html=1;fontFamily=Times New Roman;" parent="1" vertex="1">
          <mxGeometry x="268" y="40" width="315" height="1040" as="geometry" />
        </mxCell>
      </root>
    </mxGraphModel>
  </diagram>
</mxfile>
